# AST/ASF file generated using VICON BodyLanguage
# -----------------------------------------------
:version 1.10
:name VICON
:units
  mass 1.0
  length 0.45
  angle deg
:documentation
   .ast/.asf automatically generated from VICON data using
   VICON BodyBuilder and BodyLanguage model FoxedUp or BRILLIANT.MOD
:root
   order TX TY TZ RX RY RZ
   axis XYZ
   position 0 0 0  
   orientation 0 0 0 
:bonedata
  begin
     id 1 
     name lhipjoint
     direction 0.623415 -0.642378 0.445763 
     length 2.49859 
     axis 0 0 0  XYZ
  end
  begin
     id 2 
     name lfemur
     direction 0.34202 -0.939693 0  
     length 6.69689  
     axis 0 0 20  XYZ
    dof rx ry rz
    limits (-160.0 20.0)
           (-70.0 70.0)
           (-60.0 70.0)
  end
  begin
     id 3 
     name ltibia
     direction 0.34202 -0.939693 0   
     length 7.37574   
     axis 0 0 20   XYZ
    dof rx
    limits (-10.0 170.0)
  end
  begin
     id 4 
     name lfoot
     direction 0.084323 -0.231675 0.969132   
     length 2.09111   
     axis -90 7.62852e-016 20   XYZ
    dof rx rz
    limits (-45.0 90.0)
           (-70.0 20.0)
  end
  begin
     id 5 
     name ltoes
     direction 1.5357e-011 -4.21957e-011 1   
     length 1.04989   
     axis -90 7.62852e-016 20   XYZ
    dof rx
    limits (-90.0 20.0)
  end
  begin
     id 6 
     name rhipjoint
     direction -0.605402 -0.653903 0.45376   
     length 2.45455  
     axis 0 0 0  XYZ 
  end
  begin
     id 7 
     name rfemur
     direction -0.34202 -0.939693 0   
     length 6.64523   
     axis 0 0 -20   XYZ
    dof rx ry rz
    limits (-160.0 20.0)
           (-70.0 70.0)
           (-70.0 60.0)
  end
  begin
     id 8 
     name rtibia
     direction -0.34202 -0.939693 0   
     length 7.3339   
     axis 0 0 -20   XYZ
    dof rx
    limits (-10.0 170.0)
 end
 begin
     id 9 
     name rfoot
     direction -0.120854 -0.332043 0.93549   
     length 2.23135  
     axis -90 -7.62852e-016 -20   XYZ
    dof rx rz
    limits (-45.0 90.0)
           (-20.0 70.0)
  end
  begin
     id 10 
     name rtoes
     direction -1.53563e-011 -4.21914e-011 1   
     length 1.10614   
     axis -90 -7.62852e-016 -20   XYZ
    dof rx
    limits (-90.0 20.0)
  end
  begin
     id 11 
     name lowerback
     direction 0.0319682 0.998615 -0.0417941   
     length 2.02718   
     axis 0 0 0   XYZ
    dof rx ry rz
    limits (-20.0 45.0)
           (-30.0 30.0)
           (-30.0 30.0)
  end
  begin
     id 12 
     name upperback
     direction 7.63181e-005 0.995808 0.0914691   
     length 1.97539   
     axis 0 0 0   XYZ
    dof rx ry rz
    limits (-20.0 45.0)
           (-30.0 30.0)
           (-30.0 30.0)
  end
  begin
     id 13 
     name thorax
     direction -0.016423 0.993627 0.111514   
     length 2.00349   
     axis 0 0 0   XYZ
    dof rx ry rz
    limits (-20.0 45.0)
           (-30.0 30.0)
           (-30.0 30.0)
  end
  begin
     id 14 
     name lowerneck
     direction -0.174763 0.981668 -0.0760716   
     length 1.71436   
     axis 0 0 0   XYZ
    dof rx ry rz
    limits (-20.0 45.0)
           (-30.0 30.0)
           (-30.0 30.0)
  end
  begin
     id 15 
     name upperneck
     direction 0.345458 0.934587 -0.0848868   
     length 1.72805   
     axis 0 0 0   XYZ
    dof rx ry rz
    limits (-20.0 45.0)
           (-30.0 30.0)
           (-30.0 30.0)
  end
  begin
     id 16
     name head
     direction 0.13001 0.989848 -0.0574291  
     length 1.767  
     axis 0 0 0   XYZ
    dof rx ry rz
    limits (-20.0 45.0)
           (-30.0 30.0)
           (-30.0 30.0)
  end
  begin
     id 17 
     name lclavicle
     direction 0.952951 0.290122 0.0878234  
     length 3.54654  
     axis 0 0 0   XYZ
    dof ry rz
    limits (-20.0 10.0)
           (0.0 20.0)
  end
  begin
     id 18 
     name lhumerus
     direction 1 -4.48957e-011 -4.56525e-028   
     length 5.19807   
     axis 180 -30 -90   XYZ
    dof rx ry rz
    limits (-60.0 90.0)
           (-90.0 90.0)
           (-90.0 90.0)
  end
  begin
     id 19
     name lradius
     direction 1 -4.48979e-011 -2.0317e-027   
     length 3.0937   
     axis 180 -30 -90   XYZ
    dof rx
    limits (-10.0 170.0)
  end
  begin
     id 20
     name lwrist
     direction 1 -4.48953e-011 -3.05809e-027   
     length 1.54685   
     axis 8.48514e-016 90 90   XYZ
    dof ry
    limits (-180.0 0.0)
 end
  begin
     id 21 
     name lhand
     direction 1 -4.48952e-011 -6.11639e-027   
     length 0.672632   
     axis 3.9013e-015 90 90   XYZ
    dof rx rz
    limits (-90.0 90.0)
           (-45.0 45.0)
  end
  begin
     id 22 
     name lfingers
     direction 1 -4.48925e-011 -1.22426e-026   
     length 0.542293   
     axis 7.80276e-015 90 90   XYZ
    dof rx
    limits (0.0 90.0)
  end
  begin
     id 23
     name lthumb
     direction 0.707107 -6.3486e-011 0.707107   
     length 0.778628   
     axis -90 45 5.37419e-014   XYZ
    dof rx rz
    limits (-45.0 45.0)
           (-45.0 45.0)
  end
  begin
     id 24 
     name rclavicle
     direction -0.960732 0.273675 -0.0457849   
     length 3.52079  
     axis 0 0 0   XYZ 
    dof ry rz
    limits (-10.0 20.0)
           (-20.0 0.0)
  end
  begin
     id 25 
     name rhumerus
     direction -1 -4.48976e-011 -1.63613e-027  
     length 5.45222   
     axis 180 30 90   XYZ
    dof rx ry rz
    limits (-90.0 60.0)
           (-90.0 90.0)
           (-90.0 90.0)
  end
  begin
     id 26 
     name rradius
     direction -1 -4.48957e-011 -7.00033e-028   
     length 3.01284   
     axis 180 30 90   XYZ
    dof rx
    limits (-10.0 170.0)
  end
  begin
     id 27 
     name rwrist
     direction -1 -4.48983e-011 -3.05543e-027   
     length 1.50642   
     axis 8.48514e-016 -90 -90   XYZ
    dof ry
    limits (-180.0 0.0)
  end
  begin
     id 28
     name rhand
     direction -1 -4.48984e-011 -6.11072e-027   
     length 0.622296   
     axis 3.9013e-015 -90 -90   XYZ
    dof rx rz
    limits (-90.0 90.0)
           (-45.0 45.0)
  end
  begin
     id 29
     name rfingers
     direction -1 -4.48865e-011 -1.22637e-026   
     length 0.501711   
     axis 7.80276e-015 -90 -90   XYZ
    dof rx
    limits (0.0 90.0)
  end
  begin
     id 30
     name rthumb
     direction -0.707107 -6.34932e-011 0.707107   
     length 0.72036   
     axis -90 -45 -5.37419e-014   XYZ
    dof rx rz
    limits (-45.0 45.0)
           (-45.0 45.0)
  end
:hierarchy
  begin
    root lhipjoint rhipjoint lowerback
    lhipjoint lfemur
    lfemur ltibia
    ltibia lfoot
    lfoot ltoes
    rhipjoint rfemur
    rfemur rtibia
    rtibia rfoot
    rfoot rtoes
    lowerback upperback
    upperback thorax
    thorax lowerneck lclavicle rclavicle
    lowerneck upperneck
    upperneck head
    lclavicle lhumerus
    lhumerus lradius
    lradius lwrist
    lwrist lhand lthumb
    lhand lfingers
    rclavicle rhumerus
    rhumerus rradius
    rradius rwrist
    rwrist rhand rthumb
    rhand rfingers
  end

#!OML:ASF H:\Not Pregnant\Project 1\Capture day 1\Session 1\non-pregnant.ASF
:FULLY-SPECIFIED
:DEGREES
285
root -5.84854 16.2846 34.4876 142.857 -84.2346 -125.118
lowerback -7.56402 4.5244 5.14872
upperback -15.0809 4.96723 -1.52178
thorax -11.4969 1.35007 -4.51214
lowerneck 2.78133 -6.484 -31.4534
upperneck 3.1825 -10.5211 24.7835
head 3.56499 -5.57456 13.0589
rclavicle 2.64384e-014 1.07344e-014
rhumerus 54.2994 -59.5078 -3.94013
rradius 58.0279
rwrist -1.95317
rhand -28.9109 -4.77377
rfingers 7.12502
rthumb -2.26562 -34.7415
lclavicle 2.64384e-014 1.07344e-014
lhumerus 27.5166 53.516 -12.3941
lradius 54.7208
lwrist 41.3055
lhand -29.2979 -38.576
lfingers 7.12502
lthumb -2.63937 -8.61256
rfemur -17.3846 -18.202 27.6808
rtibia 10.3591
rfoot -13.6807 24.5807
rtoes 0.138034
lfemur -23.8093 7.33056 -14.9142
ltibia 19.4104
lfoot -15.5344 -9.17261
ltoes -14.7185
286
root -5.84703 16.2849 34.4851 142.922 -84.2254 -125.17
lowerback -7.50095 4.54045 5.16447
upperback -15.1033 4.99075 -1.54976
thorax -11.5551 1.35456 -4.55709
lowerneck 2.72763 -6.49153 -31.4164
upperneck 3.16679 -10.5113 24.7804
head 3.56482 -5.56537 13.0496
rclavicle -2.76311e-014 -9.54166e-015
rhumerus 55.1646 -59.5024 -4.54496
rradius 57.2293
rwrist -1.84199
rhand -29.0266 -4.88801
rfingers 7.12502
rthumb -2.37742 -34.8545
lclavicle -2.76311e-014 -9.54166e-015
lhumerus 27.6541 53.4037 -12.4882
lradius 53.9302
lwrist 41.1512
lhand -29.4325 -38.5609
lfingers 7.12502
lthumb -2.7694 -8.59918
rfemur -17.4233 -18.2509 27.7121
rtibia 10.377
rfoot -13.6566 24.6618
rtoes 0.226938
lfemur -23.8292 7.32643 -14.8985
ltibia 19.4128
lfoot -15.5214 -9.16143
ltoes -14.7181
287
root -5.84554 16.2852 34.4826 142.95 -84.2148 -125.185
lowerback -7.44277 4.56042 5.18017
upperback -15.1213 5.01974 -1.57683
thorax -11.6046 1.36252 -4.60056
lowerneck 2.68241 -6.49822 -31.4319
upperneck 3.13991 -10.505 24.811
head 3.56629 -5.5589 13.0634
rclavicle 4.05521e-014 2.22639e-014
rhumerus 55.9894 -59.4987 -5.11119
rradius 56.4597
rwrist -1.77138
rhand -29.1531 -4.97142
rfingers 7.12502
rthumb -2.49957 -34.9365
lclavicle 4.05521e-014 2.22639e-014
lhumerus 27.7743 53.2956 -12.63
lradius 53.1543
lwrist 41.064
lhand -29.5649 -38.5364
lfingers 7.12502
lthumb -2.89731 -8.57634
rfemur -17.457 -18.2958 27.7467
rtibia 10.3875
rfoot -13.6325 24.7367
rtoes 0.294853
lfemur -23.8526 7.33309 -14.8807
ltibia 19.4204
lfoot -15.506 -9.16996
ltoes -14.6727
288
root -5.84407 16.2853 34.48 142.956 -84.2062 -125.181
lowerback -7.37628 4.58135 5.20742
upperback -15.1413 5.04994 -1.61315
thorax -11.6597 1.36876 -4.6613
lowerneck 2.65162 -6.50582 -31.4635
upperneck 3.10446 -10.5061 24.8686
head 3.56778 -5.5573 13.0909
rclavicle 3.8763e-014 4.77083e-015
rhumerus 56.7707 -59.4877 -5.64819
rradius 55.7027
rwrist -1.73831
rhand -29.282 -5.01717
rfingers 7.12502
rthumb -2.62405 -34.9808
lclavicle 3.8763e-014 4.77083e-015
lhumerus 27.9084 53.1834 -12.7885
lradius 52.4001
lwrist 41.0209
lhand -29.7176 -38.467
lfingers 7.12502
lthumb -3.04469 -8.50899
rfemur -17.4871 -18.3501 27.783
rtibia 10.3968
rfoot -13.615 24.8124
rtoes 0.343403
lfemur -23.8769 7.35522 -14.8672
ltibia 19.4322
lfoot -15.4939 -9.19489
ltoes -14.632
289
root -5.84261 16.2853 34.4773 142.954 -84.2002 -125.172
lowerback -7.29114 4.60242 5.25417
upperback -15.1704 5.07974 -1.6678
thorax -11.7341 1.36982 -4.75472
lowerneck 2.63625 -6.51644 -31.5446
upperneck 3.07539 -10.5246 24.9925
head 3.58086 -5.5668 13.1535
rclavicle -3.69739e-014 -2.22639e-014
rhumerus 57.5086 -59.4629 -6.17719
rradius 54.9671
rwrist -1.72641
rhand -29.3965 -5.04394
rfingers 7.12502
rthumb -2.73468 -35.0062
lclavicle -3.69739e-014 -2.22639e-014
lhumerus 28.0999 53.0671 -12.9124
lradius 51.6741
lwrist 40.9937
lhand -29.8799 -38.3612
lfingers 7.12502
lthumb -3.2015 -8.4055
rfemur -17.5166 -18.4188 27.8201
rtibia 10.4062
rfoot -13.5947 24.8992
rtoes 0.410943
lfemur -23.9034 7.39453 -14.8599
ltibia 19.4483
lfoot -15.4841 -9.24013
ltoes -14.5868
290
root -5.84121 16.2852 34.4745 142.96 -84.1972 -125.175
lowerback -7.20507 4.62126 5.29763
upperback -15.1967 5.10686 -1.72265
thorax -11.8062 1.3701 -4.84666
lowerneck 2.63565 -6.52925 -31.6644
upperneck 3.03368 -10.5531 25.1532
head 3.59561 -5.58262 13.2378
rclavicle -2.82274e-014 -2.38542e-015
rhumerus 58.2244 -59.4347 -6.72142
rradius 54.2586
rwrist -1.71307
rhand -29.5009 -5.01807
rfingers 7.12502
rthumb -2.83548 -34.979
lclavicle -2.82274e-014 -2.38542e-015
lhumerus 28.3449 52.964 -12.9523
lradius 50.9781
lwrist 40.9561
lhand -30.0412 -38.2511
lfingers 7.12502
lthumb -3.35726 -8.29779
rfemur -17.5442 -18.4955 27.855
rtibia 10.4196
rfoot -13.5854 24.9846
rtoes 0.456904
lfemur -23.9275 7.44593 -14.8592
ltibia 19.4667
lfoot -15.4779 -9.29591
ltoes -14.5626
291
root -5.83983 16.2849 34.4716 142.962 -84.1963 -125.177
lowerback -7.12575 4.63699 5.3283
upperback -15.216 5.13059 -1.76787
thorax -11.8679 1.37169 -4.92032
lowerneck 2.62631 -6.54321 -31.7799
upperneck 2.9891 -10.5787 25.3022
head 3.60936 -5.5962 13.3166
rclavicle 3.18055e-015 1.59028e-015
rhumerus 58.94 -59.4088 -7.29147
rradius 53.5975
rwrist -1.67629
rhand -29.5782 -4.99455
rfingers 7.12502
rthumb -2.9101 -34.9544
lclavicle 3.18055e-015 1.59028e-015
lhumerus 28.6614 52.8892 -12.8632
lradius 50.309
lwrist 40.8814
lhand -30.1857 -38.1586
lfingers 7.12502
lthumb -3.49678 -8.20749
rfemur -17.5694 -18.5744 27.8877
rtibia 10.4363
rfoot -13.5793 25.068
rtoes 0.506066
lfemur -23.9491 7.5012 -14.8607
ltibia 19.4867
lfoot -15.4725 -9.35759
ltoes -14.5438
